HIERARCHY
ROOT root
{
	OFFSET 0.000000 0.000000 0.000000
	CHANNELS 6 Xposition Yposition Zposition Zrotation Yrotation Xrotation
	JOINT lhip
	{
		OFFSET 0.058581 -0.082280 -0.017664
		CHANNELS 3 Zrotation Yrotation Xrotation
		JOINT lknee
		{
			OFFSET 0.043451 -0.386469 0.008037
			CHANNELS 3 Zrotation Yrotation Xrotation
			JOINT lankle
			{
				OFFSET -0.014790 -0.426874 -0.037428
				CHANNELS 3 Zrotation Yrotation Xrotation
				JOINT ltoe
				{
					OFFSET 0.041054 -0.060286 0.122042
					CHANNELS 3 Zrotation Yrotation Xrotation
					End Site
					{
						OFFSET 0.000000 0.000000 0.000000
					}
				}
			}
		}
	}
	JOINT rhip
	{
		OFFSET -0.060310 -0.090513 -0.013543
		CHANNELS 3 Zrotation Yrotation Xrotation
		JOINT rknee
		{
			OFFSET -0.043257 -0.383688 -0.004843
			CHANNELS 3 Zrotation Yrotation Xrotation
			JOINT rankle
			{
				OFFSET 0.019056 -0.420046 -0.034562
				CHANNELS 3 Zrotation Yrotation Xrotation
				JOINT rtoe
				{
					OFFSET -0.034840 -0.062106 0.130323
					CHANNELS 3 Zrotation Yrotation Xrotation
					End Site
					{
						OFFSET 0.000000 0.000000 0.000000
					}
				}
			}
		}
	}
	JOINT lowerback
	{
		OFFSET 0.004439 0.124404 -0.038385
		CHANNELS 3 Zrotation Yrotation Xrotation
		JOINT upperback
		{
			OFFSET 0.004488 0.137956 0.026820
			CHANNELS 3 Zrotation Yrotation Xrotation
			JOINT chest
			{
				OFFSET -0.002265 0.056032 0.002855
				CHANNELS 3 Zrotation Yrotation Xrotation
				JOINT lowerneck
				{
					OFFSET -0.013390 0.211636 -0.033468
					CHANNELS 3 Zrotation Yrotation Xrotation
					JOINT upperneck
					{
						OFFSET 0.010113 0.088937 0.050410
						CHANNELS 3 Zrotation Yrotation Xrotation
						End Site
						{
							OFFSET 0.000000 0.000000 0.000000
						}
					}
				}
				JOINT lclavicle
				{
					OFFSET 0.071702 0.114000 -0.018898
					CHANNELS 3 Zrotation Yrotation Xrotation
					JOINT lshoulder
					{
						OFFSET 0.122921 0.045205 -0.019046
						CHANNELS 3 Zrotation Yrotation Xrotation
						JOINT lelbow
						{
							OFFSET 0.255332 -0.015649 -0.022946
							CHANNELS 3 Zrotation Yrotation Xrotation
							JOINT lwrist
							{
								OFFSET 0.265709 0.012698 -0.007375
								CHANNELS 3 Zrotation Yrotation Xrotation
								End Site
								{
									OFFSET 0.000000 0.000000 0.000000
								}
							}
						}
					}
				}
				JOINT rclavicle
				{
					OFFSET -0.082954 0.112472 -0.023707
					CHANNELS 3 Zrotation Yrotation Xrotation
					JOINT rshoulder
					{
						OFFSET -0.113228 0.046853 -0.008472
						CHANNELS 3 Zrotation Yrotation Xrotation
						JOINT relbow
						{
							OFFSET -0.260127 -0.014369 -0.031269
							CHANNELS 3 Zrotation Yrotation Xrotation
							JOINT rwrist
							{
								OFFSET -0.269108 0.006794 -0.006027
								CHANNELS 3 Zrotation Yrotation Xrotation
								End Site
								{
									OFFSET 0.000000 0.000000 0.000000
								}
							}
						}
					}
				}
			}
		}
	}
}
MOTION
Frames: 6
Frame Time: 0.033333
0.032353 0.364829 1.016727 178.181728 -0.852438 90.801149 4.124478 2.017976 2.749906 -3.293492 -3.136196 -2.999612 3.098800 9.983068 -11.503144 0.000000 -0.000000 0.000000 -4.751027 -1.852082 -2.499289 2.426835 0.795593 4.529363 8.191490 -1.809222 0.199538 0.000000 -0.000000 0.000000 -2.142831 1.736713 1.635362 1.667391 -2.753122 7.737013 0.868018 0.497684 -5.973074 -1.399822 2.438290 -3.330475 3.698363 -0.858848 -4.854490 -22.181365 -6.221890 1.289820 -60.376522 -6.930039 17.102290 3.099014 -34.126507 10.030260 -8.686719 -13.760789 3.712450 22.722055 11.773947 5.283388 58.557612 6.960665 17.463351 -4.155897 33.127309 5.187962 6.603010 12.535802 -0.543603 
0.031988 0.365431 1.016746 178.269280 -0.876083 90.759379 4.109880 2.007435 2.752387 -3.350990 -3.088899 -2.875763 3.037749 9.893592 -11.565562 0.000000 -0.000000 0.000000 -4.801642 -1.876781 -2.384141 2.436055 0.672994 4.478464 8.177917 -1.795428 0.228480 0.000000 -0.000000 0.000000 -2.152049 1.747662 1.595207 1.705393 -2.759588 7.816228 0.902175 0.504409 -6.039234 -1.409631 2.401739 -3.378869 3.592933 -1.003117 -5.004004 -22.106628 -6.271843 1.419906 -60.415492 -6.785704 17.100706 2.989079 -33.863917 10.244792 -8.831706 -13.706948 4.123555 22.793545 11.914940 5.359746 58.333516 7.072300 17.325286 -4.202037 32.256734 5.175975 6.824022 12.342444 -0.067482 
0.031574 0.366446 1.016691 178.430164 -0.886832 90.636582 4.112490 1.950847 2.821985 -3.397786 -3.178651 -2.662097 3.043374 9.864983 -11.726878 0.000000 -0.000000 0.000000 -4.825925 -1.922185 -2.206276 2.432560 0.686815 4.555150 8.131488 -1.888370 0.075513 0.000000 -0.000000 0.000000 -2.132551 1.722466 1.630508 1.732064 -2.822073 7.826499 0.930799 0.483642 -5.999558 -1.442483 2.380474 -3.486784 3.576217 -0.963923 -5.308247 -22.077988 -6.305971 1.454046 -60.473766 -6.701445 17.060647 3.048089 -33.161952 10.258907 -9.110157 -13.457343 4.307687 22.841201 12.026135 5.320459 58.189911 7.162813 17.269847 -4.154750 30.974053 5.251724 7.358542 12.011069 0.078695 
0.031151 0.367510 1.016636 178.467473 -0.886946 90.553999 4.125151 1.931576 2.891399 -3.483848 -3.135714 -2.510795 2.983640 9.839948 -11.853428 0.000000 -0.000000 0.000000 -4.858638 -2.021978 -2.073826 2.455282 0.732561 4.598951 8.102678 -1.863785 -0.008760 0.000000 -0.000000 0.000000 -2.110834 1.810273 1.582934 1.795877 -2.823162 7.876956 0.961849 0.486415 -6.022743 -1.521475 2.375240 -3.487134 3.492037 -1.064945 -5.554950 -22.021050 -6.384032 1.516619 -60.655064 -6.502713 17.057905 3.046452 -32.206076 10.170515 -9.249983 -13.177596 4.508184 22.928555 12.063262 5.364963 58.028143 7.109123 17.128042 -4.326445 29.973122 5.195890 7.684833 11.792424 0.605422 
0.030722 0.368672 1.016534 178.581577 -0.894499 90.498952 4.108960 1.934763 2.895766 -3.490229 -3.239647 -2.258483 3.070312 9.820881 -12.061634 0.000000 -0.000000 0.000000 -4.852128 -2.048988 -1.989014 2.409446 0.767353 4.707605 8.015427 -1.912075 -0.114637 0.000000 -0.000000 0.000000 -2.072770 1.834189 1.556877 1.841430 -2.871440 7.903098 0.916487 0.517493 -6.134027 -1.547862 2.281811 -3.553937 3.499563 -1.149944 -5.543468 -22.130260 -6.337229 1.537145 -60.590289 -6.306959 17.023686 3.047655 -31.036165 10.134423 -9.527391 -13.180401 4.971451 23.045424 12.014867 5.359830 57.995413 7.002743 17.001983 -4.457196 28.865074 5.194728 7.907291 11.683107 1.199628 
0.030428 0.370050 1.016376 178.595873 -0.880515 90.428559 4.140935 1.921397 2.973496 -3.549886 -3.364191 -2.075443 3.049743 9.940564 -12.265615 0.000000 -0.000000 0.000000 -4.855180 -2.042480 -1.814237 2.418148 0.829230 4.718626 8.002668 -2.000648 -0.250659 0.000000 -0.000000 0.000000 -1.984342 1.828896 1.503258 1.817190 -2.850936 7.831448 0.885956 0.538699 -6.140517 -1.552422 2.204042 -3.371569 3.523238 -1.115392 -5.612555 -22.158560 -6.141495 1.596040 -60.642797 -6.093975 16.977509 3.198626 -29.981657 10.154982 -9.629408 -13.100909 5.233259 22.981520 12.000274 5.394811 58.144947 6.775211 16.995600 -4.434099 27.909630 5.142509 7.685619 11.754536 1.100754 
